<svg xmlns="http://www.w3.org/2000/svg" xmlns:xlink="http://www.w3.org/1999/xlink" width="50" zoomAndPan="magnify" viewBox="0 0 37.5 37.499999" height="50" preserveAspectRatio="xMidYMid meet" version="1.2"><defs><clipPath id="b7b66af174"><path d="M 0.886719 3 L 31 3 L 31 37.007812 L 0.886719 37.007812 Z M 0.886719 3 "/></clipPath><clipPath id="6b456dc2a0"><path d="M 1 3 L 36.414062 3 L 36.414062 32 L 1 32 Z M 1 3 "/></clipPath></defs><g id="7ee90bb17a"><path style=" stroke:none;fill-rule:nonzero;fill:#8ccaef;fill-opacity:1;" d="M 10.453125 21.042969 L 10.453125 34.082031 L 6.570312 31.863281 L 5.726562 31.382812 L 5.308594 31.136719 L 5.308594 21.042969 Z M 10.453125 21.042969 "/><path style=" stroke:none;fill-rule:nonzero;fill:#8ccaef;fill-opacity:1;" d="M 13.167969 12.828125 L 18.320312 12.828125 L 18.320312 35.445312 L 13.167969 35.445312 Z M 13.167969 12.828125 "/><path style=" stroke:none;fill-rule:nonzero;fill:#8ccaef;fill-opacity:1;" d="M 26.179688 0 L 26.179688 31.046875 L 23.605469 32.566406 L 21.027344 34.089844 L 21.027344 0 Z M 26.179688 0 "/><g clip-rule="nonzero" clip-path="url(#b7b66af174)"><path style=" stroke:none;fill-rule:nonzero;fill:#474fa2;fill-opacity:1;" d="M 30.234375 11.425781 L 30.144531 11.375 L 29.457031 10.984375 C 29.203125 11.339844 28.917969 11.714844 28.613281 12.117188 L 29.171875 12.441406 L 29.171875 17.621094 C 29.679688 17.082031 30.148438 16.550781 30.582031 16.046875 L 30.582031 12.042969 C 30.582031 11.78125 30.449219 11.554688 30.234375 11.425781 Z M 29.738281 18.175781 C 29.554688 18.371094 29.367188 18.570312 29.171875 18.769531 L 29.171875 27.8125 L 26.917969 29.101562 L 26.179688 29.523438 L 21.027344 32.46875 L 20.289062 32.890625 L 18.320312 34.023438 L 15.847656 35.4375 L 15.75 35.496094 L 15.65625 35.4375 L 13.175781 34.015625 L 10.460938 32.460938 L 8.429688 31.308594 L 7.601562 30.832031 L 6.792969 30.375 L 5.308594 29.523438 L 4.539062 29.078125 L 3.703125 28.597656 L 2.890625 28.132812 L 2.316406 27.808594 L 2.316406 12.433594 L 15.742188 4.75 L 20.289062 7.355469 L 20.289062 5.734375 L 16.09375 3.339844 C 15.878906 3.210938 15.609375 3.210938 15.394531 3.339844 L 1.253906 11.425781 C 1.039062 11.554688 0.90625 11.78125 0.90625 12.035156 L 0.90625 28.214844 C 0.90625 28.464844 1.039062 28.695312 1.253906 28.820312 L 1.800781 29.132812 L 2.644531 29.621094 L 4.757812 30.828125 L 4.90625 30.90625 L 5.308594 31.136719 L 5.726562 31.375 L 6.570312 31.855469 L 10.453125 34.082031 L 15.394531 36.910156 C 15.503906 36.96875 15.625 37.007812 15.742188 37.007812 C 15.863281 37.007812 15.988281 36.976562 16.09375 36.910156 L 21.027344 34.089844 L 24.03125 32.375 L 26.171875 31.144531 L 26.910156 30.722656 L 30.226562 28.828125 C 30.441406 28.703125 30.574219 28.472656 30.574219 28.222656 L 30.574219 17.253906 C 30.316406 17.554688 30.03125 17.867188 29.738281 18.175781 Z M 29.738281 18.175781 "/></g><g clip-rule="nonzero" clip-path="url(#6b456dc2a0)"><path style=" stroke:none;fill-rule:nonzero;fill:#3c84ac;fill-opacity:1;" d="M 36.398438 11.425781 L 34.5625 10.449219 C 34.253906 10.945312 33.03125 13.160156 30.582031 16.039062 C 30.148438 16.550781 29.679688 17.074219 29.171875 17.613281 C 28.292969 18.554688 27.300781 19.53125 26.179688 20.53125 C 24.695312 21.847656 22.984375 23.195312 21.027344 24.5 C 20.171875 25.066406 19.265625 25.636719 18.3125 26.1875 C 16.730469 27.097656 15.019531 27.96875 13.160156 28.777344 C 12.289062 29.152344 11.382812 29.523438 10.445312 29.863281 C 9.527344 30.203125 8.570312 30.53125 7.585938 30.832031 C 6.972656 31.027344 6.355469 31.203125 5.71875 31.382812 L 5.300781 31.144531 L 4.898438 30.914062 L 4.75 30.832031 L 2.636719 29.628906 L 1.800781 29.132812 C 1.890625 29.109375 1.988281 29.085938 2.078125 29.058594 C 2.628906 28.910156 3.167969 28.761719 3.703125 28.605469 C 4.25 28.441406 4.785156 28.28125 5.308594 28.101562 C 7.136719 27.503906 8.847656 26.835938 10.460938 26.121094 C 11.398438 25.699219 12.304688 25.261719 13.175781 24.808594 C 15.058594 23.832031 16.765625 22.796875 18.328125 21.738281 C 19.289062 21.078125 20.191406 20.40625 21.042969 19.738281 C 23.089844 18.117188 24.789062 16.488281 26.195312 14.980469 C 27.140625 13.953125 27.949219 12.988281 28.628906 12.117188 C 28.933594 11.714844 29.21875 11.339844 29.472656 10.984375 C 30.128906 10.074219 30.613281 9.3125 30.941406 8.777344 C 30.988281 8.710938 31.023438 8.644531 31.0625 8.578125 L 30.398438 8.222656 L 29.859375 7.941406 L 29.066406 7.519531 L 29.285156 7.386719 L 35.613281 3.492188 L 36.128906 3.175781 L 36.160156 4.0625 Z M 36.398438 11.425781 "/></g></g></svg>